<svg height="448pt" viewBox="0 -36 448 448" width="448pt" xmlns="http://www.w3.org/2000/svg"><path d="m112 376h-112l16-48 16-8h48l8 8 24 8zm0 0" fill="#ffcb74"/><path d="m336 296-112 80-32-40 8-8 112-80zm0 0" fill="#da922a"/><path d="m128 248-112 80h72l112-80zm0 0" fill="#fbb540"/><path d="m352 248-112 80 8 8h56l8-8 112-80zm0 0" fill="#fbb540"/><path d="m224 296-112 80-24-48 112-80zm0 0" fill="#da922a"/><path d="m224 376h-112l16-48 16-8h48l8 8zm0 0" fill="#ffcb74"/><path d="m448 296-112 80-32-40 8-8 112-80zm0 0" fill="#ea9d2d"/><path d="m240 248-112 80h72l112-80zm0 0" fill="#fbb540"/><path d="m336 376h-112l16-48h72zm0 0" fill="#ffcb74"/><path d="m400 224-112 80-32-40 8-8 112-80zm0 0" fill="#ea9d2d"/><path d="m192 176-112 80 16 8h48l8-8 112-80zm0 0" fill="#fbb540"/><path d="m288 224-112 80-32-40 8-8 112-80zm0 0" fill="#da922a"/><g fill="#fbb540"><path d="m195.199219 22.457031-11.199219-22.457031-11.199219 22.457031c-3.09375 6.210938-8.132812 11.25-14.34375 14.34375l-22.457031 11.199219 22.457031 11.199219c6.210938 3.09375 11.25 8.132812 14.34375 14.34375l11.199219 22.457031 11.199219-22.457031c3.09375-6.210938 8.132812-11.25 14.34375-14.34375l22.457031-11.199219-22.457031-11.199219c-6.210938-3.09375-11.25-8.132812-14.34375-14.34375zm0 0"/><path d="m417.359375 82.71875-9.359375-18.71875-9.359375 18.71875c-2.578125 5.160156-6.761719 9.34375-11.921875 11.921875l-18.71875 9.359375 18.71875 9.359375c5.160156 2.578125 9.34375 6.761719 11.921875 11.921875l9.359375 18.71875 9.359375-18.71875c2.578125-5.160156 6.761719-9.34375 11.921875-11.921875l18.71875-9.359375-18.71875-9.359375c-5.160156-2.578125-9.34375-6.761719-11.921875-11.921875zm0 0"/><path d="m57.359375 162.71875-9.359375-18.71875-9.359375 18.71875c-2.578125 5.160156-6.761719 9.34375-11.921875 11.921875l-18.71875 9.359375 18.71875 9.359375c5.160156 2.578125 9.34375 6.761719 11.921875 11.921875l9.359375 18.71875 9.359375-18.71875c2.578125-5.160156 6.761719-9.34375 11.921875-11.921875l18.71875-9.359375-18.71875-9.359375c-5.160156-2.578125-9.34375-6.761719-11.921875-11.921875zm0 0"/><path d="m304 176-112 80 8 8h56l8-8 112-80zm0 0"/><path d="m240 112-112 80 16 8h40l16-8 112-80zm0 0"/></g><path d="m336 160-112 80-32-40 8-8 112-80zm0 0" fill="#ea9d2d"/><path d="m288 304h-112l16-48h72zm0 0" fill="#ffcb74"/><path d="m176 304h-112l16-48h72zm0 0" fill="#ffcb74"/><path d="m224 240h-112l16-48h72zm0 0" fill="#ffcb74"/></svg>